<svg id="Layer_1" data-name="Layer 1" xmlns="http://www.w3.org/2000/svg" viewBox="0 0 403.39 88.49"><defs><style>.cls-1{fill:#68b845;}.cls-2{fill:#00afc6;}.cls-3{fill:#231f20;}.cls-4{fill:#fff;}</style></defs><path class="cls-1" d="M31.51,54.76a6.6,6.6,0,0,0,3.2,1.78A6.9,6.9,0,0,1,31.51,54.76ZM29.57,51a6.44,6.44,0,0,0,.86,2.36A7,7,0,0,1,29.57,51Zm-.14-32h-20a.05.05,0,0,0-.05.05v3.43a16.55,16.55,0,0,1,4.27,5.75,11.74,11.74,0,0,1,4.3-.82,12.67,12.67,0,0,1,9.73,4.9,12.84,12.84,0,0,1,1.82-2.06V19A0,0,0,0,0,29.43,19Z"/><path class="cls-1" d="M139.94,18.9H114.77a18.53,18.53,0,0,0-16.22,9.48l-13,23.26-2.8,5-2.57,4.58-.63,1.12-.31.57L75.79,69l-.07.14s0,.05,0,.06H96.3a.32.32,0,0,0,.29-.17l.06-.1,0,0,.81-1.45,6-10.77.94-1.68.47-.85,0,0h14.88a0,0,0,0,1,0,0v15a.05.05,0,0,0,0,0h20a0,0,0,0,0,.05,0V19A0,0,0,0,0,139.94,18.9ZM119.87,41.51a0,0,0,0,1,0,.05h-7.74s0,0,0-.07l4.85-8.64a3.12,3.12,0,0,1,2.48-1.42h.49Z"/><path class="cls-1" d="M210.19,19.33H190.25s0,0,0,0L172.76,50.46l-2.8,5a4.11,4.11,0,0,1-1.44,1.28,2.84,2.84,0,0,1-1.33.35h-.92V19.38a0,0,0,0,0-.05-.05h-19.3a0,0,0,0,0,0,.05V68.79a0,0,0,0,0,0,0h24.81a18.58,18.58,0,0,0,3.51-.37l.84-.19a18.48,18.48,0,0,0,11.59-8.71l1.59-2.84L192.49,51,210.23,19.4S210.23,19.33,210.19,19.33Z"/><path class="cls-1" d="M256.05,19H230.88l-.71,0a18.18,18.18,0,0,0-4.3.66h0a18.41,18.41,0,0,0-11.21,8.79L201.87,51.27l-3.06,5.46-7,12.48s0,.06,0,.06h20.72s0,0,0,0l7-12.52L221,54.21s0,0,0,0h14.88s0,0,0,0v15a.05.05,0,0,0,.05,0h20a.05.05,0,0,0,.05,0V19A.05.05,0,0,0,256.05,19ZM236,41.59a0,0,0,0,1,0,0H228.2a.09.09,0,0,1,0,0s0,0,0,0L233,32.93a3.1,3.1,0,0,1,2.48-1.42H236Z"/><path class="cls-1" d="M293.72,31.51h29.84a.05.05,0,0,0,.05-.05V19a.05.05,0,0,0-.05-.05H286.71c-13.82,0-25.5,10.91-25.72,24.74V44a25.15,25.15,0,0,0,25.15,25.26h37.42a.05.05,0,0,0,.05,0V37.94a.06.06,0,0,0-.05,0H293.63a.05.05,0,0,0-.05,0V50.31a0,0,0,0,0,.05,0h9.82a.05.05,0,0,1,.05,0v6.27a.05.05,0,0,1-.05,0h-9.73a12.61,12.61,0,1,1,0-25.22Z"/><path class="cls-1" d="M350.23,31.51h42.4a0,0,0,0,0,.05-.05V19a0,0,0,0,0-.05-.05H330.11a.05.05,0,0,0-.05.05v30.9c0,.21,0,.42,0,.63A19.32,19.32,0,0,0,349.4,69.27h43.23a0,0,0,0,0,.05,0V56.78a.05.05,0,0,0-.05-.05H357a6.77,6.77,0,0,1-6.8-6.32,0,0,0,0,1,.05,0h27.1a0,0,0,0,0,.05,0V37.94a.05.05,0,0,0-.05,0h-27.1a0,0,0,0,1-.05,0V31.56A.05.05,0,0,1,350.23,31.51Z"/><path class="cls-2" d="M66.91,69.27v0a.05.05,0,0,1,0,0Zm0-12.54a.06.06,0,0,1,0,.05v-.05ZM10,55A19.31,19.31,0,0,0,22.9,68.38,19.48,19.48,0,0,1,10,55Z"/><path class="cls-2" d="M66.91,56.78V69.22a.05.05,0,0,1,0,0H28.71c-.66,0-1.3,0-1.93-.09a18.66,18.66,0,0,1-2.52-.43c-.47-.11-.92-.23-1.36-.37A19.48,19.48,0,0,1,10,55c-.12-.46-.23-.91-.32-1.39s-.18-1.12-.24-1.69a17.87,17.87,0,0,1-.1-1.94V22.46a16.55,16.55,0,0,1,4.27,5.75,11.74,11.74,0,0,1,4.3-.82,12.67,12.67,0,0,1,9.73,4.9,12.84,12.84,0,0,1,1.82-2.06v19.7c0,.22,0,.44,0,.65l.06.43a6.44,6.44,0,0,0,.86,2.36,3.37,3.37,0,0,0,.22.35h0a5.9,5.9,0,0,0,.44.58h0a4.37,4.37,0,0,0,.42.44,6.71,6.71,0,0,0,3.74,1.89,2.32,2.32,0,0,0,.38.05c.21,0,.43,0,.65,0H66.86A.06.06,0,0,1,66.91,56.78Z"/><path class="cls-2" d="M75.79,69a1.42,1.42,0,0,0,0,.2H96.3a.32.32,0,0,0,.29-.17l.06-.1,0,0,.81-1.45,6-10.77.94-1.68.47-.85,0,0h14.88a0,0,0,0,1,0,0v15a.05.05,0,0,0,0,0h20a0,0,0,0,0,.05,0V48.58a21.63,21.63,0,0,0-9.09,5.52A16.51,16.51,0,0,0,100.73,59a16.51,16.51,0,0,0-20.49,2.16l-.1.1Z"/><path class="cls-2" d="M192.49,51l-3.23,5.75-1.59,2.84a18.48,18.48,0,0,1-11.59,8.71l-.84.19a18.58,18.58,0,0,1-3.51.37H146.92a0,0,0,0,1,0,0V47.64a21.63,21.63,0,0,1,15.54,7,16.21,16.21,0,0,1,3.86-2.59v5h.92a2.84,2.84,0,0,0,1.33-.35A4.11,4.11,0,0,0,170,55.45l2.8-5,.71,0a16.46,16.46,0,0,1,11.6,4.76A16.47,16.47,0,0,1,192.49,51Z"/><path class="cls-2" d="M251.21,41.69a21.88,21.88,0,0,1,4.89.55v27a.05.05,0,0,1-.05,0H236a.05.05,0,0,1-.05,0v-15s0,0,0,0H221.06s0,0,0,0l-1.41,2.52-7,12.52s0,0,0,0H191.86s-.06,0,0-.06l7-12.48,3.06-5.46a17,17,0,0,1,3.7,1.77,16.51,16.51,0,0,1,16.08-12.77,16.18,16.18,0,0,1,6.5,1.34l.09,0a16.49,16.49,0,0,1,7.5,6.53A21.66,21.66,0,0,1,251.21,41.69Z"/><path class="cls-2" d="M323.61,49.5V69.22a.05.05,0,0,1-.05,0H286.14A25.15,25.15,0,0,1,261,44a21.75,21.75,0,0,1,9.92,10.22,16.54,16.54,0,0,1,12.92-.15c.15-.53.32-1,.51-1.55a12.58,12.58,0,0,0,9.38,4.2h9.73a.05.05,0,0,0,.05,0V50.41a.05.05,0,0,0-.05,0h-9.82a0,0,0,0,1-.05,0V41.48a21.72,21.72,0,0,1,30,8Z"/><path class="cls-3" d="M377.33,50.36h-1q.52-.13,1.08-.24v.19A0,0,0,0,1,377.33,50.36Z"/><path class="cls-2" d="M392.68,56.78V69.22a0,0,0,0,1-.05,0H349.4a19.32,19.32,0,0,1-19.33-18.71,17.23,17.23,0,0,1,4.9-.71,17,17,0,0,1,7.67,1.81,17.09,17.09,0,0,1,28.84-1.3H350.23a0,0,0,0,0-.05,0,6.77,6.77,0,0,0,6.8,6.32h35.65A.05.05,0,0,1,392.68,56.78Z"/><circle class="cls-2" cx="131.4" cy="39.87" r="1.69"/><circle class="cls-2" cx="108.44" cy="29.46" r="2.27"/><path class="cls-4" d="M118.38,51.56l-1.17-.87a.59.59,0,0,0-.69,0l-1.17.87.77-1.2a.56.56,0,0,0,0-.63l-.77-1.21,1.2.79a.56.56,0,0,0,.63,0l1.2-.79-.8,1.2a.59.59,0,0,0,0,.65Z"/><path class="cls-4" d="M151.76,53.08l-1.17-.87a.59.59,0,0,0-.69,0l-1.18.87.78-1.2a.56.56,0,0,0,0-.63L148.72,50l1.2.79a.57.57,0,0,0,.64,0l1.2-.79-.8,1.2a.57.57,0,0,0,0,.64Z"/><path class="cls-4" d="M202,67.68l-1.17-.87a.59.59,0,0,0-.69,0l-1.18.87.78-1.2a.56.56,0,0,0,0-.63l-.78-1.2,1.2.79a.61.61,0,0,0,.64,0l1.2-.79-.8,1.19a.59.59,0,0,0,0,.65Z"/><path class="cls-4" d="M220.81,47.64l-1.39-1a.69.69,0,0,0-.82,0l-1.39,1,.92-1.43a.66.66,0,0,0,0-.74L217.21,44l1.42.94a.7.7,0,0,0,.76,0l1.42-.94-.95,1.42a.66.66,0,0,0,0,.76Z"/><path class="cls-4" d="M267.1,53.36l-1.39-1a.69.69,0,0,0-.82,0l-1.39,1,.93-1.43a.7.7,0,0,0,0-.74l-.93-1.42,1.42.93a.7.7,0,0,0,.76,0l1.42-.93-1,1.41a.66.66,0,0,0,0,.76Z"/><path class="cls-4" d="M295.18,46.57l.71,1.07-1.38-1a.69.69,0,0,0-.82,0l-.11.09v-1.8l.14.09a.7.7,0,0,0,.76,0l1.41-.94-.71,1.08A1.32,1.32,0,0,0,295.18,46.57Z"/><path class="cls-4" d="M241.08,67.94l-.69-.51a.35.35,0,0,0-.41,0l-.69.51.46-.71a.35.35,0,0,0,0-.37l-.46-.71.71.46a.32.32,0,0,0,.37,0l.71-.46-.47.7a.35.35,0,0,0,0,.39Z"/><path class="cls-4" d="M250.55,60l-1.39-1a.66.66,0,0,0-.82,0L247,60l.92-1.43a.7.7,0,0,0,0-.74L247,56.44l1.42.94a.68.68,0,0,0,.75,0l1.42-.94-1,1.42a.7.7,0,0,0,0,.76Z"/><path class="cls-4" d="M287.59,64.65l-1.39-1a.69.69,0,0,0-.82,0l-1.39,1,.93-1.43a.7.7,0,0,0,0-.74L284,61.05l1.42.94a.7.7,0,0,0,.76,0l1.42-.94-.95,1.42a.66.66,0,0,0,0,.76Z"/><path class="cls-4" d="M337.47,58l-1.39-1a.69.69,0,0,0-.82,0l-1.38,1,.92-1.42a.72.72,0,0,0,0-.75l-.92-1.42,1.42.93a.65.65,0,0,0,.75,0l1.42-.93-1,1.41a.71.71,0,0,0,0,.77Z"/><path class="cls-4" d="M358.33,47.64l-1.39-1a.69.69,0,0,0-.82,0l-1.38,1,.92-1.43a.7.7,0,0,0,0-.74L354.74,44l1.42.94a.68.68,0,0,0,.75,0l1.42-.94-.95,1.42a.7.7,0,0,0,0,.76Z"/><path class="cls-4" d="M381.47,69.27l.11-.17a.66.66,0,0,0,0-.74l-.92-1.43,1.42.94a.7.7,0,0,0,.76,0l1.42-.94-.95,1.42a.71.71,0,0,0,0,.77l.11.15Z"/><path class="cls-4" d="M316.51,62.22l-.84-.63a.4.4,0,0,0-.49,0l-.85.63.56-.87a.41.41,0,0,0,0-.45l-.56-.86.87.56a.41.41,0,0,0,.45,0l.86-.56-.57.85a.41.41,0,0,0,0,.47Z"/><path class="cls-4" d="M176.62,67.35l-.49.73a.28.28,0,0,0,0,.2l-.84.19h0a.33.33,0,0,0,0-.38l-.47-.73.73.48a.37.37,0,0,0,.38,0Z"/><path class="cls-4" d="M92.14,64.32,91,63.44a.6.6,0,0,0-.7,0l-1.17.88.78-1.21a.6.6,0,0,0,0-.63l-.78-1.2,1.2.79a.57.57,0,0,0,.64,0l1.2-.79-.8,1.19a.59.59,0,0,0,0,.65Z"/><path class="cls-4" d="M36.23,61.56l-1.17-.88a.59.59,0,0,0-.69,0l-1.18.88L34,60.35a.56.56,0,0,0,0-.63l-.78-1.2,1.2.79a.57.57,0,0,0,.64,0l1.2-.79-.8,1.19a.59.59,0,0,0,0,.65Z"/><path class="cls-4" d="M16.46,29.65l-1.17-.88a.6.6,0,0,0-.7,0l-1.17.88.78-1.21a.6.6,0,0,0,0-.63l-.78-1.2,1.2.79a.57.57,0,0,0,.64,0l1.2-.79-.8,1.19a.59.59,0,0,0,0,.65Z"/><path class="cls-4" d="M20.31,60l-1.49-1.11a.74.74,0,0,0-.87,0L16.46,60l1-1.53a.77.77,0,0,0,0-.8l-1-1.52,1.52,1a.74.74,0,0,0,.81,0l1.52-1-1,1.51a.76.76,0,0,0,0,.82Z"/><path class="cls-4" d="M109.59,30l-.73-.53a.33.33,0,0,0-.42,0l-.72.53.48-.74a.37.37,0,0,0,0-.38l-.48-.74.74.48a.35.35,0,0,0,.39,0l.74-.48-.5.73a.36.36,0,0,0,0,.4Z"/><circle class="cls-2" cx="196.8" cy="25.28" r="2.18"/><circle class="cls-2" cx="158.96" cy="41.64" r="3.53"/><circle class="cls-2" cx="274.05" cy="32.97" r="2.33"/><circle class="cls-2" cx="333.2" cy="38.92" r="1.66"/><circle class="cls-2" cx="353.63" cy="23.29" r="2.33"/><path class="cls-2" d="M306.1,31.51v-.08a1.17,1.17,0,0,0-2.33,0,.19.19,0,0,0,0,.08Z"/><path class="cls-2" d="M230.48,20.14a2.33,2.33,0,1,1-4.66,0,2.5,2.5,0,0,1,.05-.47h0a18.18,18.18,0,0,1,4.3-.66A2.15,2.15,0,0,1,230.48,20.14Z"/><path class="cls-4" d="M354.25,22.74l-.85-.63a.42.42,0,0,0-.5,0l-.86.63.57-.87a.43.43,0,0,0,0-.46l-.57-.87.88.57a.43.43,0,0,0,.46,0l.87-.57-.58.87a.41.41,0,0,0,0,.47Z"/></svg>